<svg xmlns="http://www.w3.org/2000/svg" xmlns:xlink="http://www.w3.org/1999/xlink" width="500" zoomAndPan="magnify" viewBox="0 0 375 374.999991" height="500" preserveAspectRatio="xMidYMid meet" version="1.0"><path fill="#ffffff" d="M 376.546875 188.210938 C 376.546875 84.257812 292.257812 0 188.285156 0 C 84.308594 0 0.00390625 84.257812 0.00390625 188.210938 C 0.00390625 276.46875 60.785156 350.539062 142.792969 370.878906 L 142.792969 245.726562 L 103.960938 245.726562 L 103.960938 188.210938 L 142.792969 188.210938 L 142.792969 163.429688 C 142.792969 99.375 171.792969 69.679688 234.703125 69.679688 C 246.632812 69.679688 267.214844 72.011719 275.628906 74.359375 L 275.628906 126.488281 C 271.1875 126.011719 263.464844 125.777344 253.882812 125.777344 C 223.007812 125.777344 211.078125 137.464844 211.078125 167.855469 L 211.078125 188.191406 L 272.570312 188.191406 L 262.011719 245.710938 L 211.078125 245.710938 L 211.078125 375.015625 C 304.308594 363.765625 376.546875 284.410156 376.546875 188.191406 Z M 376.546875 188.210938 " fill-opacity="1" fill-rule="nonzero"/></svg>