<svg xmlns="http://www.w3.org/2000/svg" xmlns:xlink="http://www.w3.org/1999/xlink" width="500" zoomAndPan="magnify" viewBox="0 0 375 374.999991" height="500" preserveAspectRatio="xMidYMid meet" version="1.0"><defs><clipPath id="97bcbea8f6"><path d="M 53.386719 99.125 L 321.613281 99.125 L 321.613281 336.570312 L 53.386719 336.570312 Z M 53.386719 99.125 " clip-rule="nonzero"/></clipPath><clipPath id="4f9abf8d2a"><path d="M 0 38.4375 L 375 38.4375 L 375 214 L 0 214 Z M 0 38.4375 " clip-rule="nonzero"/></clipPath></defs><g clip-path="url(#97bcbea8f6)"><path fill="#ffffff" d="M 186.039062 99.824219 L 54.542969 208.234375 C 54.160156 208.546875 53.898438 208.976562 53.777344 209.457031 C 53.777344 209.457031 53.777344 209.460938 53.777344 209.460938 C 53.699219 209.773438 53.65625 209.996094 53.65625 210.15625 L 53.65625 321.691406 C 53.65625 325.71875 55.132812 329.207031 58.074219 332.148438 C 61.019531 335.085938 64.503906 336.566406 68.53125 336.566406 L 155.457031 336.566406 C 156.726562 336.566406 157.753906 335.535156 157.753906 334.269531 L 157.753906 249.636719 C 157.753906 248.367188 158.785156 247.335938 160.054688 247.335938 L 214.949219 247.335938 C 216.21875 247.335938 217.246094 248.367188 217.246094 249.636719 L 217.246094 334.273438 C 217.246094 335.539062 218.273438 336.570312 219.542969 336.570312 L 306.46875 336.570312 C 310.496094 336.570312 313.988281 335.09375 316.925781 332.148438 C 319.871094 329.210938 321.347656 325.71875 321.347656 321.691406 L 321.347656 210.15625 C 321.347656 210.074219 321.347656 209.996094 321.34375 209.914062 C 321.320312 209.273438 321.007812 208.679688 320.507812 208.269531 L 188.964844 99.824219 C 188.113281 99.125 186.886719 99.125 186.039062 99.824219 " fill-opacity="1" fill-rule="nonzero"/></g><g clip-path="url(#4f9abf8d2a)"><path fill="#ffffff" d="M 372.226562 183.671875 L 321.34375 141.378906 L 321.34375 46.574219 C 321.34375 44.40625 320.644531 42.625 319.246094 41.230469 C 317.859375 39.835938 316.078125 39.140625 313.90625 39.140625 L 269.292969 39.140625 C 267.121094 39.140625 265.34375 39.835938 263.945312 41.230469 C 262.554688 42.625 261.855469 44.40625 261.855469 46.574219 L 261.855469 91.886719 L 205.160156 44.480469 C 200.210938 40.453125 194.320312 38.441406 187.503906 38.441406 C 180.691406 38.441406 174.804688 40.453125 169.847656 44.480469 L 2.769531 183.671875 C 1.222656 184.910156 0.371094 186.574219 0.214844 188.664062 C 0.0585938 190.757812 0.597656 192.582031 1.839844 194.128906 L 16.246094 211.324219 C 17.488281 212.714844 19.113281 213.566406 21.125 213.882812 C 22.984375 214.035156 24.847656 213.496094 26.703125 212.253906 L 187.5 78.175781 L 348.296875 212.253906 C 349.539062 213.332031 351.164062 213.875 353.175781 213.875 L 353.875 213.875 C 355.886719 213.566406 357.507812 212.710938 358.753906 211.320312 L 373.164062 194.128906 C 374.402344 192.578125 374.945312 190.753906 374.785156 188.660156 C 374.625 186.574219 373.773438 184.910156 372.226562 183.671875 " fill-opacity="1" fill-rule="nonzero"/></g></svg>