<svg xmlns="http://www.w3.org/2000/svg" xmlns:xlink="http://www.w3.org/1999/xlink" width="500" zoomAndPan="magnify" viewBox="0 0 375 374.999991" height="500" preserveAspectRatio="xMidYMid meet" version="1.0"><defs><clipPath id="e6f69ed0f5"><path d="M 18.515625 255 L 356.765625 255 L 356.765625 375 L 18.515625 375 Z M 18.515625 255 " clip-rule="nonzero"/></clipPath></defs><g clip-path="url(#e6f69ed0f5)"><path fill="#ffffff" d="M 18.75 314.0625 C 18.75 347.71875 94.3125 375 187.5 375 C 280.6875 375 356.25 347.71875 356.25 314.0625 C 356.25 286.6875 306.1875 263.625 237.46875 255.9375 L 204.46875 326.625 C 204.09375 327.425781 203.660156 328.195312 203.175781 328.9375 C 202.6875 329.675781 202.152344 330.378906 201.570312 331.042969 C 200.984375 331.707031 200.355469 332.328125 199.679688 332.902344 C 199.007812 333.476562 198.296875 334.003906 197.550781 334.476562 C 196.800781 334.953125 196.023438 335.371094 195.21875 335.734375 C 194.410156 336.101562 193.582031 336.40625 192.734375 336.652344 C 191.882812 336.902344 191.019531 337.085938 190.144531 337.210938 C 189.265625 337.335938 188.386719 337.398438 187.5 337.398438 C 186.613281 337.398438 185.734375 337.335938 184.855469 337.210938 C 183.980469 337.085938 183.117188 336.902344 182.265625 336.652344 C 181.417969 336.40625 180.589844 336.101562 179.78125 335.734375 C 178.976562 335.371094 178.199219 334.953125 177.449219 334.476562 C 176.703125 334.003906 175.992188 333.476562 175.320312 332.902344 C 174.644531 332.328125 174.015625 331.707031 173.429688 331.042969 C 172.847656 330.378906 172.3125 329.675781 171.824219 328.9375 C 171.339844 328.195312 170.90625 327.425781 170.53125 326.625 L 137.53125 255.9375 C 68.8125 263.625 18.75 286.6875 18.75 314.0625 Z M 18.75 314.0625 " fill-opacity="1" fill-rule="nonzero"/></g><path fill="#ffffff" d="M 271.21875 139.125 C 272.289062 136.992188 273.277344 134.824219 274.1875 132.617188 C 275.097656 130.414062 275.921875 128.175781 276.664062 125.910156 C 277.40625 123.644531 278.066406 121.351562 278.640625 119.035156 C 279.210938 116.722656 279.699219 114.386719 280.097656 112.035156 C 280.5 109.683594 280.8125 107.320312 281.035156 104.945312 C 281.261719 102.570312 281.394531 100.191406 281.445312 97.808594 C 281.492188 95.421875 281.453125 93.039062 281.324219 90.65625 C 281.195312 88.273438 280.976562 85.902344 280.671875 83.535156 C 280.367188 81.167969 279.976562 78.816406 279.496094 76.480469 C 279.019531 74.144531 278.453125 71.828125 277.800781 69.535156 C 277.152344 67.238281 276.414062 64.972656 275.597656 62.730469 C 274.777344 60.492188 273.875 58.285156 272.894531 56.109375 C 271.910156 53.9375 270.847656 51.800781 269.707031 49.707031 C 268.566406 47.613281 267.347656 45.5625 266.054688 43.558594 C 264.761719 41.554688 263.394531 39.601562 261.957031 37.699219 C 260.519531 35.792969 259.011719 33.949219 257.4375 32.15625 C 256.359375 30.902344 255.25 29.675781 254.105469 28.480469 C 252.960938 27.28125 251.789062 26.117188 250.582031 24.984375 C 249.375 23.851562 248.140625 22.753906 246.875 21.6875 C 245.609375 20.621094 244.316406 19.589844 242.992188 18.59375 C 241.671875 17.597656 240.324219 16.636719 238.953125 15.714844 C 237.582031 14.789062 236.183594 13.902344 234.761719 13.054688 C 233.34375 12.207031 231.902344 11.398438 230.4375 10.625 C 228.972656 9.855469 227.488281 9.125 225.984375 8.433594 C 224.480469 7.742188 222.960938 7.09375 221.421875 6.484375 C 219.882812 5.875 218.332031 5.308594 216.761719 4.78125 C 215.191406 4.257812 213.609375 3.773438 212.015625 3.332031 C 210.421875 2.894531 208.8125 2.496094 207.199219 2.140625 C 205.582031 1.789062 203.957031 1.480469 202.324219 1.210938 C 200.691406 0.945312 199.050781 0.722656 197.40625 0.546875 C 195.761719 0.367188 194.113281 0.234375 192.460938 0.144531 C 190.808594 0.0585938 189.15625 0.0117188 187.5 0.0117188 C 185.84375 0.0117188 184.191406 0.0585938 182.539062 0.144531 C 180.886719 0.234375 179.238281 0.367188 177.59375 0.546875 C 175.949219 0.722656 174.308594 0.945312 172.675781 1.210938 C 171.042969 1.480469 169.417969 1.789062 167.800781 2.140625 C 166.1875 2.496094 164.578125 2.894531 162.984375 3.332031 C 161.390625 3.773438 159.808594 4.257812 158.238281 4.78125 C 156.667969 5.308594 155.117188 5.875 153.578125 6.484375 C 152.039062 7.09375 150.519531 7.742188 149.015625 8.433594 C 147.511719 9.125 146.027344 9.855469 144.5625 10.625 C 143.097656 11.398438 141.65625 12.207031 140.238281 13.054688 C 138.816406 13.902344 137.417969 14.789062 136.046875 15.714844 C 134.675781 16.636719 133.328125 17.597656 132.007812 18.59375 C 130.683594 19.589844 129.390625 20.621094 128.125 21.6875 C 126.859375 22.753906 125.625 23.851562 124.417969 24.984375 C 123.210938 26.117188 122.039062 27.28125 120.894531 28.480469 C 119.75 29.675781 118.640625 30.902344 117.5625 32.15625 C 115.988281 33.949219 114.480469 35.792969 113.042969 37.699219 C 111.605469 39.601562 110.238281 41.554688 108.945312 43.558594 C 107.652344 45.5625 106.433594 47.613281 105.292969 49.707031 C 104.152344 51.800781 103.089844 53.9375 102.105469 56.109375 C 101.125 58.285156 100.222656 60.492188 99.402344 62.730469 C 98.585938 64.972656 97.847656 67.238281 97.199219 69.535156 C 96.546875 71.828125 95.980469 74.144531 95.503906 76.480469 C 95.023438 78.816406 94.632812 81.167969 94.328125 83.535156 C 94.023438 85.902344 93.804688 88.273438 93.675781 90.65625 C 93.546875 93.039062 93.507812 95.421875 93.554688 97.808594 C 93.605469 100.191406 93.738281 102.570312 93.964844 104.945312 C 94.1875 107.320312 94.5 109.683594 94.902344 112.035156 C 95.300781 114.386719 95.789062 116.722656 96.359375 119.035156 C 96.933594 121.351562 97.59375 123.644531 98.335938 125.910156 C 99.078125 128.175781 99.90625 130.414062 100.8125 132.617188 C 101.722656 134.824219 102.710938 136.992188 103.78125 139.125 L 187.5 318.75 Z M 131.25 93.75 C 131.25 91.90625 131.339844 90.070312 131.519531 88.238281 C 131.703125 86.402344 131.972656 84.582031 132.332031 82.777344 C 132.691406 80.96875 133.136719 79.183594 133.671875 77.421875 C 134.207031 75.660156 134.828125 73.925781 135.53125 72.222656 C 136.238281 70.523438 137.023438 68.859375 137.890625 67.234375 C 138.761719 65.609375 139.707031 64.03125 140.730469 62.5 C 141.753906 60.96875 142.847656 59.488281 144.019531 58.066406 C 145.1875 56.640625 146.421875 55.277344 147.726562 53.976562 C 149.027344 52.671875 150.390625 51.4375 151.816406 50.269531 C 153.238281 49.097656 154.71875 48.003906 156.25 46.980469 C 157.78125 45.957031 159.359375 45.011719 160.984375 44.140625 C 162.609375 43.273438 164.273438 42.488281 165.972656 41.78125 C 167.675781 41.078125 169.410156 40.457031 171.171875 39.921875 C 172.933594 39.386719 174.71875 38.941406 176.527344 38.582031 C 178.332031 38.222656 180.152344 37.953125 181.988281 37.769531 C 183.820312 37.589844 185.65625 37.5 187.5 37.5 C 189.34375 37.5 191.179688 37.589844 193.011719 37.769531 C 194.847656 37.953125 196.667969 38.222656 198.472656 38.582031 C 200.28125 38.941406 202.066406 39.386719 203.828125 39.921875 C 205.589844 40.457031 207.324219 41.078125 209.027344 41.78125 C 210.726562 42.488281 212.390625 43.273438 214.015625 44.140625 C 215.640625 45.011719 217.21875 45.957031 218.75 46.980469 C 220.28125 48.003906 221.761719 49.097656 223.183594 50.269531 C 224.609375 51.4375 225.972656 52.671875 227.273438 53.976562 C 228.578125 55.277344 229.8125 56.640625 230.980469 58.066406 C 232.152344 59.488281 233.246094 60.96875 234.269531 62.5 C 235.292969 64.03125 236.238281 65.609375 237.109375 67.234375 C 237.976562 68.859375 238.761719 70.523438 239.46875 72.222656 C 240.171875 73.925781 240.792969 75.660156 241.328125 77.421875 C 241.863281 79.183594 242.308594 80.96875 242.667969 82.777344 C 243.027344 84.582031 243.296875 86.402344 243.480469 88.238281 C 243.660156 90.070312 243.75 91.90625 243.75 93.75 C 243.75 95.59375 243.660156 97.429688 243.480469 99.261719 C 243.296875 101.097656 243.027344 102.917969 242.667969 104.722656 C 242.308594 106.53125 241.863281 108.316406 241.328125 110.078125 C 240.792969 111.839844 240.171875 113.574219 239.46875 115.277344 C 238.761719 116.976562 237.976562 118.640625 237.109375 120.265625 C 236.238281 121.890625 235.292969 123.46875 234.269531 125 C 233.246094 126.53125 232.152344 128.011719 230.980469 129.433594 C 229.8125 130.859375 228.578125 132.222656 227.273438 133.523438 C 225.972656 134.828125 224.609375 136.0625 223.183594 137.230469 C 221.761719 138.402344 220.28125 139.496094 218.75 140.519531 C 217.21875 141.542969 215.640625 142.488281 214.015625 143.359375 C 212.390625 144.226562 210.726562 145.011719 209.027344 145.71875 C 207.324219 146.421875 205.589844 147.042969 203.828125 147.578125 C 202.066406 148.113281 200.28125 148.558594 198.472656 148.917969 C 196.667969 149.277344 194.847656 149.546875 193.011719 149.730469 C 191.179688 149.910156 189.34375 150 187.5 150 C 185.65625 150 183.820312 149.910156 181.988281 149.730469 C 180.152344 149.546875 178.332031 149.277344 176.527344 148.917969 C 174.71875 148.558594 172.933594 148.113281 171.171875 147.578125 C 169.410156 147.042969 167.675781 146.421875 165.972656 145.71875 C 164.273438 145.011719 162.609375 144.226562 160.984375 143.359375 C 159.359375 142.488281 157.78125 141.542969 156.25 140.519531 C 154.71875 139.496094 153.238281 138.402344 151.816406 137.230469 C 150.390625 136.0625 149.027344 134.828125 147.726562 133.523438 C 146.421875 132.222656 145.1875 130.859375 144.019531 129.433594 C 142.847656 128.011719 141.753906 126.53125 140.730469 125 C 139.707031 123.46875 138.761719 121.890625 137.890625 120.265625 C 137.023438 118.640625 136.238281 116.976562 135.53125 115.277344 C 134.828125 113.574219 134.207031 111.839844 133.671875 110.078125 C 133.136719 108.316406 132.691406 106.53125 132.332031 104.722656 C 131.972656 102.917969 131.703125 101.097656 131.519531 99.261719 C 131.339844 97.429688 131.25 95.59375 131.25 93.75 Z M 131.25 93.75 " fill-opacity="1" fill-rule="nonzero"/></svg>