<svg xmlns="http://www.w3.org/2000/svg" xmlns:xlink="http://www.w3.org/1999/xlink" width="500" zoomAndPan="magnify" viewBox="0 0 375 374.999991" height="500" preserveAspectRatio="xMidYMid meet" version="1.0"><defs><clipPath id="066caf0249"><path d="M 17.8125 1 L 357 1 L 357 371 L 17.8125 371 Z M 17.8125 1 " clip-rule="nonzero"/></clipPath></defs><g clip-path="url(#066caf0249)"><path fill="#ffffff" d="M 83.910156 354.15625 C 118.328125 342.644531 150.40625 316.488281 180.144531 275.6875 C 200.648438 248.222656 216.539062 206.402344 227.8125 150.230469 C 228.628906 147.460938 227.222656 146.855469 223.59375 148.414062 C 199.980469 163.785156 164.394531 180.160156 116.828125 197.539062 C 109.535156 200.542969 107.628906 198.996094 111.105469 192.902344 C 129.132812 163.203125 181.714844 99.402344 268.84375 1.496094 C 279.234375 0.519531 293.796875 21.695312 312.523438 65.03125 L 356.101562 226.570312 C 356.792969 230.746094 350.34375 226.859375 336.757812 214.910156 L 284.160156 162.847656 C 260.289062 304.296875 171.542969 373.34375 17.921875 369.984375 Z M 83.910156 354.15625 " fill-opacity="1" fill-rule="nonzero"/></g></svg>