<svg xmlns="http://www.w3.org/2000/svg" xmlns:xlink="http://www.w3.org/1999/xlink" width="500" zoomAndPan="magnify" viewBox="0 0 375 374.999991" height="500" preserveAspectRatio="xMidYMid meet" version="1.0"><path fill="#ffffff" d="M 187.5 27.832031 C 189.78125 27.832031 192.058594 27.882812 194.335938 27.984375 C 196.613281 28.082031 198.890625 28.230469 201.160156 28.425781 C 203.433594 28.621094 205.699219 28.867188 207.960938 29.160156 C 210.222656 29.453125 212.476562 29.796875 214.722656 30.1875 C 216.96875 30.578125 219.207031 31.015625 221.433594 31.5 C 223.660156 31.988281 225.878906 32.519531 228.082031 33.101562 C 230.289062 33.679688 232.480469 34.308594 234.65625 34.984375 C 236.835938 35.660156 238.996094 36.378906 241.144531 37.148438 C 243.292969 37.914062 245.421875 38.726562 247.535156 39.585938 C 249.644531 40.445312 251.738281 41.347656 253.8125 42.296875 C 255.886719 43.242188 257.9375 44.234375 259.96875 45.273438 C 262 46.308594 264.007812 47.386719 265.992188 48.507812 C 267.976562 49.632812 269.9375 50.796875 271.875 52 C 273.808594 53.207031 275.714844 54.453125 277.597656 55.742188 C 279.480469 57.03125 281.332031 58.355469 283.15625 59.722656 C 284.984375 61.089844 286.777344 62.496094 288.542969 63.941406 C 290.308594 65.382812 292.039062 66.867188 293.742188 68.382812 C 295.441406 69.902344 297.109375 71.457031 298.746094 73.046875 C 300.378906 74.636719 301.980469 76.257812 303.542969 77.917969 C 305.109375 79.574219 306.636719 81.265625 308.128906 82.988281 C 309.625 84.714844 311.078125 86.46875 312.496094 88.253906 C 313.914062 90.039062 315.292969 91.855469 316.632812 93.699219 C 317.972656 95.546875 319.269531 97.417969 320.53125 99.320312 C 321.789062 101.21875 323.007812 103.148438 324.183594 105.097656 C 325.363281 107.050781 326.496094 109.03125 327.589844 111.03125 C 328.683594 113.03125 329.730469 115.054688 330.738281 117.101562 C 331.742188 119.148438 332.703125 121.214844 333.621094 123.304688 C 334.539062 125.390625 335.410156 127.496094 336.238281 129.621094 C 337.0625 131.746094 337.84375 133.886719 338.578125 136.046875 C 339.316406 138.203125 340.003906 140.378906 340.644531 142.566406 C 341.289062 144.753906 341.882812 146.953125 342.429688 149.167969 C 342.980469 151.378906 343.480469 153.605469 343.929688 155.839844 C 344.382812 158.074219 344.789062 160.316406 345.144531 162.570312 C 345.5 164.820312 345.808594 167.082031 346.070312 169.347656 C 346.328125 171.609375 346.539062 173.878906 346.703125 176.15625 C 346.867188 178.429688 346.980469 180.707031 347.042969 182.984375 C 347.109375 185.265625 347.125 187.542969 347.09375 189.824219 C 347.0625 192.105469 346.980469 194.382812 346.847656 196.660156 C 346.71875 198.933594 346.539062 201.207031 346.3125 203.476562 C 346.085938 205.746094 345.808594 208.007812 345.484375 210.265625 C 345.160156 212.519531 344.789062 214.769531 344.367188 217.011719 C 343.945312 219.253906 343.480469 221.484375 342.960938 223.703125 C 342.445312 225.925781 341.882812 228.132812 341.273438 230.332031 C 340.660156 232.527344 340.003906 234.710938 339.300781 236.878906 C 338.59375 239.046875 337.84375 241.199219 337.046875 243.335938 C 336.25 245.472656 335.410156 247.589844 334.523438 249.691406 C 333.636719 251.792969 332.703125 253.871094 331.726562 255.933594 C 330.75 257.992188 329.730469 260.03125 328.667969 262.046875 C 327.601562 264.066406 326.496094 266.058594 325.347656 268.027344 C 324.199219 269.996094 323.007812 271.941406 321.777344 273.859375 C 320.542969 275.777344 319.269531 277.667969 317.957031 279.535156 C 316.644531 281.398438 315.292969 283.230469 313.898438 285.039062 C 312.507812 286.84375 311.078125 288.621094 309.609375 290.363281 C 308.140625 292.109375 306.636719 293.820312 305.097656 295.5 C 303.554688 297.183594 301.980469 298.828125 300.367188 300.441406 C 298.753906 302.054688 297.109375 303.632812 295.429688 305.175781 C 293.75 306.714844 292.039062 308.222656 290.296875 309.691406 C 288.550781 311.160156 286.777344 312.589844 284.972656 313.984375 C 283.167969 315.378906 281.332031 316.730469 279.46875 318.046875 C 277.605469 319.359375 275.714844 320.632812 273.800781 321.867188 C 271.882812 323.101562 269.9375 324.292969 267.96875 325.441406 C 266 326.59375 264.007812 327.699219 261.992188 328.765625 C 259.976562 329.832031 257.9375 330.851562 255.878906 331.828125 C 253.816406 332.808594 251.738281 333.742188 249.636719 334.628906 C 247.230469 335.644531 244.800781 336.601562 242.34375 337.5 C 239.890625 338.398438 237.414062 339.234375 234.917969 340.011719 C 232.421875 340.785156 229.910156 341.5 227.378906 342.152344 C 224.847656 342.808594 222.300781 343.398438 219.742188 343.925781 C 217.179688 344.453125 214.609375 344.917969 212.027344 345.316406 C 209.445312 345.71875 206.851562 346.058594 204.253906 346.332031 C 201.65625 346.605469 199.050781 346.816406 196.441406 346.960938 C 193.832031 347.109375 191.21875 347.191406 188.605469 347.207031 C 185.992188 347.226562 183.378906 347.179688 180.765625 347.070312 C 178.15625 346.960938 175.546875 346.785156 172.945312 346.546875 C 170.34375 346.308594 167.746094 346.007812 165.160156 345.640625 C 162.570312 345.277344 159.992188 344.847656 157.425781 344.355469 C 154.859375 343.863281 152.304688 343.308594 149.765625 342.691406 C 147.226562 342.074219 144.703125 341.394531 142.195312 340.652344 C 139.691406 339.910156 137.203125 339.109375 134.734375 338.246094 C 132.269531 337.382812 129.824219 336.457031 127.402344 335.472656 C 124.980469 334.492188 122.585938 333.449219 120.214844 332.347656 C 117.84375 331.246094 115.5 330.085938 113.1875 328.871094 C 110.875 327.65625 108.59375 326.382812 106.339844 325.054688 C 104.089844 323.726562 101.871094 322.34375 99.6875 320.90625 C 97.507812 319.46875 95.359375 317.980469 93.25 316.4375 C 91.140625 314.894531 89.066406 313.300781 87.035156 311.65625 C 85.003906 310.011719 83.011719 308.320312 81.066406 306.578125 C 79.117188 304.835938 77.210938 303.046875 75.351562 301.210938 C 73.488281 299.375 71.675781 297.496094 69.90625 295.574219 C 68.136719 293.648438 66.417969 291.679688 64.746094 289.671875 C 63.070312 287.664062 61.449219 285.613281 59.878906 283.527344 C 58.308594 281.4375 56.789062 279.3125 55.320312 277.148438 C 53.855469 274.984375 52.441406 272.785156 51.082031 270.554688 C 49.722656 268.320312 48.417969 266.058594 47.171875 263.761719 C 45.921875 261.464844 44.730469 259.136719 43.597656 256.78125 C 42.464844 254.429688 41.386719 252.046875 40.371094 249.636719 C 39.355469 247.230469 38.398438 244.800781 37.5 242.34375 C 36.601562 239.890625 35.765625 237.414062 34.988281 234.917969 C 34.210938 232.421875 33.5 229.910156 32.847656 227.378906 C 32.191406 224.847656 31.601562 222.300781 31.074219 219.742188 C 30.546875 217.179688 30.082031 214.609375 29.683594 212.027344 C 29.28125 209.445312 28.941406 206.851562 28.667969 204.253906 C 28.394531 201.652344 28.183594 199.050781 28.039062 196.441406 C 27.890625 193.832031 27.808594 191.21875 27.792969 188.605469 C 27.773438 185.992188 27.820312 183.378906 27.929688 180.765625 C 28.039062 178.15625 28.214844 175.546875 28.453125 172.945312 C 28.691406 170.34375 28.992188 167.746094 29.359375 165.160156 C 29.722656 162.570312 30.152344 159.992188 30.644531 157.425781 C 31.136719 154.859375 31.691406 152.304688 32.308594 149.765625 C 32.925781 147.226562 33.605469 144.703125 34.347656 142.195312 C 35.089844 139.691406 35.890625 137.203125 36.753906 134.734375 C 37.617188 132.269531 38.542969 129.824219 39.527344 127.402344 C 40.507812 124.980469 41.550781 122.585938 42.652344 120.214844 C 43.753906 117.84375 44.914062 115.5 46.128906 113.1875 C 47.34375 110.875 48.617188 108.59375 49.945312 106.339844 C 51.273438 104.089844 52.65625 101.871094 54.09375 99.6875 C 55.53125 97.503906 57.019531 95.359375 58.5625 93.25 C 60.105469 91.140625 61.699219 89.066406 63.34375 87.035156 C 64.988281 85.003906 66.679688 83.011719 68.421875 81.066406 C 70.164062 79.117188 71.953125 77.210938 73.789062 75.351562 C 75.621094 73.488281 77.503906 71.675781 79.425781 69.90625 C 81.351562 68.136719 83.320312 66.417969 85.328125 64.746094 C 87.335938 63.070312 89.386719 61.449219 91.472656 59.878906 C 93.5625 58.308594 95.6875 56.789062 97.851562 55.320312 C 100.015625 53.855469 102.214844 52.441406 104.445312 51.082031 C 106.679688 49.722656 108.941406 48.417969 111.238281 47.171875 C 113.535156 45.921875 115.863281 44.730469 118.21875 43.597656 C 120.570312 42.464844 122.953125 41.386719 125.359375 40.371094 C 135.191406 36.210938 145.335938 33.078125 155.796875 30.964844 C 166.257812 28.855469 176.828125 27.808594 187.5 27.832031 M 187.5 0 C 83.949219 0 0 83.949219 0 187.5 C 0 291.050781 83.949219 375 187.5 375 C 291.050781 375 375 291.058594 375 187.5 C 375 83.941406 291.050781 0 187.5 0 Z M 187.5 0 " fill-opacity="1" fill-rule="nonzero"/><path fill="#ffffff" d="M 240.613281 255.367188 C 238.769531 255.367188 236.996094 255.015625 235.289062 254.308594 C 233.585938 253.601562 232.082031 252.59375 230.777344 251.285156 L 177.65625 198.171875 C 176.351562 196.867188 175.347656 195.363281 174.640625 193.65625 C 173.9375 191.953125 173.582031 190.179688 173.582031 188.335938 L 173.582031 78.3125 C 173.582031 77.398438 173.671875 76.492188 173.851562 75.59375 C 174.03125 74.699219 174.292969 73.828125 174.644531 72.984375 C 174.992188 72.140625 175.421875 71.339844 175.929688 70.578125 C 176.4375 69.820312 177.015625 69.117188 177.660156 68.46875 C 178.304688 67.824219 179.007812 67.246094 179.769531 66.738281 C 180.527344 66.230469 181.332031 65.804688 182.175781 65.453125 C 183.019531 65.105469 183.890625 64.839844 184.785156 64.660156 C 185.679688 64.484375 186.585938 64.394531 187.5 64.394531 C 188.414062 64.394531 189.320312 64.484375 190.214844 64.660156 C 191.109375 64.839844 191.980469 65.105469 192.824219 65.453125 C 193.667969 65.804688 194.472656 66.230469 195.230469 66.738281 C 195.992188 67.246094 196.695312 67.824219 197.339844 68.46875 C 197.984375 69.117188 198.5625 69.820312 199.070312 70.578125 C 199.578125 71.339844 200.007812 72.140625 200.355469 72.984375 C 200.707031 73.828125 200.96875 74.699219 201.148438 75.59375 C 201.328125 76.492188 201.414062 77.398438 201.414062 78.3125 L 201.414062 182.570312 L 250.488281 231.644531 C 251.460938 232.617188 252.273438 233.710938 252.921875 234.921875 C 253.574219 236.136719 254.03125 237.417969 254.300781 238.769531 C 254.570312 240.121094 254.636719 241.480469 254.5 242.851562 C 254.367188 244.21875 254.035156 245.542969 253.507812 246.8125 C 252.980469 248.085938 252.28125 249.253906 251.40625 250.316406 C 250.535156 251.382812 249.523438 252.296875 248.378906 253.058594 C 247.234375 253.824219 246.003906 254.40625 244.6875 254.804688 C 243.367188 255.203125 242.019531 255.402344 240.644531 255.402344 Z M 240.613281 255.367188 " fill-opacity="1" fill-rule="nonzero"/></svg>