<svg xmlns="http://www.w3.org/2000/svg" xmlns:xlink="http://www.w3.org/1999/xlink" width="500" zoomAndPan="magnify" viewBox="0 0 375 374.999991" height="500" preserveAspectRatio="xMidYMid meet" version="1.0"><defs><clipPath id="34dc2dd20a"><path d="M 0 14.296875 L 375 14.296875 L 375 360.796875 L 0 360.796875 Z M 0 14.296875 " clip-rule="nonzero"/></clipPath></defs><g clip-path="url(#34dc2dd20a)"><path fill="#ffffff" d="M 201.671875 14.296875 C 106.03125 14.296875 28.503906 91.847656 28.503906 187.511719 C 28.492188 198.039062 29.433594 208.484375 31.328125 218.839844 C 33.226562 229.191406 36.042969 239.292969 39.785156 249.132812 L 1.246094 321.414062 C 0.96875 321.929688 0.773438 322.472656 0.652344 323.039062 C 0.527344 323.609375 0.488281 324.183594 0.527344 324.765625 C 0.566406 325.347656 0.683594 325.910156 0.878906 326.457031 C 1.078125 327.007812 1.34375 327.515625 1.683594 327.988281 C 2.023438 328.460938 2.421875 328.878906 2.878906 329.238281 C 3.335938 329.601562 3.832031 329.890625 4.371094 330.113281 C 4.910156 330.335938 5.46875 330.476562 6.046875 330.542969 C 6.625 330.609375 7.199219 330.59375 7.773438 330.496094 L 86.871094 317.203125 C 90.785156 320.679688 94.847656 323.972656 99.0625 327.078125 C 103.273438 330.183594 107.621094 333.089844 112.097656 335.800781 C 116.574219 338.511719 121.167969 341.015625 125.871094 343.304688 C 130.578125 345.597656 135.375 347.671875 140.269531 349.527344 C 145.164062 351.382812 150.132812 353.011719 155.175781 354.417969 C 160.21875 355.820312 165.3125 356.992188 170.460938 357.929688 C 175.609375 358.871094 180.789062 359.574219 186.003906 360.042969 C 191.214844 360.511719 196.4375 360.742188 201.671875 360.734375 C 297.3125 360.734375 374.847656 283.179688 374.847656 187.511719 C 374.847656 91.925781 297.234375 14.296875 201.671875 14.296875 Z M 202.1875 315.558594 C 198.015625 315.578125 193.851562 315.398438 189.695312 315.011719 C 185.542969 314.625 181.417969 314.035156 177.320312 313.246094 C 173.222656 312.453125 169.175781 311.464844 165.175781 310.273438 C 161.175781 309.085938 157.242188 307.707031 153.378906 306.132812 C 149.515625 304.558594 145.738281 302.796875 142.046875 300.851562 C 138.351562 298.90625 134.765625 296.785156 131.28125 294.488281 C 127.796875 292.191406 124.433594 289.730469 121.191406 287.101562 C 117.949219 284.476562 114.84375 281.695312 111.875 278.765625 L 64.492188 287.324219 C 63.921875 287.421875 63.351562 287.4375 62.78125 287.375 C 62.207031 287.3125 61.65625 287.175781 61.121094 286.957031 C 60.589844 286.742188 60.09375 286.457031 59.640625 286.105469 C 59.183594 285.753906 58.785156 285.347656 58.445312 284.882812 C 58.101562 284.417969 57.828125 283.917969 57.625 283.378906 C 57.421875 282.839844 57.296875 282.285156 57.246094 281.710938 C 57.199219 281.136719 57.226562 280.570312 57.335938 280.003906 C 57.445312 279.4375 57.628906 278.898438 57.886719 278.382812 L 81.816406 232.566406 C 79.023438 225.132812 76.941406 217.503906 75.574219 209.679688 C 74.203125 201.859375 73.570312 193.976562 73.671875 186.039062 C 74.464844 115.726562 131.378906 59.46875 201.671875 59.46875 C 272.375 59.46875 329.683594 116.796875 329.683594 187.511719 C 329.683594 258.171875 272.824219 315.28125 202.1875 315.558594 Z M 202.1875 315.558594 " fill-opacity="1" fill-rule="nonzero"/></g><path fill="#ffffff" d="M 183.578125 144.335938 L 177.988281 120.734375 C 177.828125 120.0625 177.632812 119.398438 177.40625 118.746094 C 177.175781 118.097656 176.914062 117.457031 176.617188 116.835938 C 176.324219 116.210938 175.996094 115.605469 175.636719 115.015625 C 175.273438 114.425781 174.886719 113.855469 174.464844 113.308594 C 174.046875 112.761719 173.597656 112.234375 173.125 111.734375 C 172.648438 111.234375 172.148438 110.757812 171.625 110.308594 C 171.097656 109.859375 170.550781 109.441406 169.980469 109.050781 C 169.414062 108.660156 168.824219 108.300781 168.21875 107.972656 C 167.609375 107.640625 166.988281 107.347656 166.351562 107.082031 C 165.710938 106.820312 165.0625 106.589844 164.398438 106.394531 C 163.734375 106.203125 163.066406 106.042969 162.386719 105.917969 C 161.707031 105.792969 161.023438 105.707031 160.335938 105.652344 C 159.648438 105.601562 158.957031 105.585938 158.265625 105.605469 C 157.578125 105.628906 156.890625 105.683594 156.207031 105.777344 C 155.523438 105.871094 154.84375 106 154.175781 106.164062 C 153.503906 106.328125 152.84375 106.527344 152.195312 106.761719 L 139.304688 111.402344 C 138.261719 111.777344 137.257812 112.238281 136.292969 112.785156 C 135.328125 113.328125 134.417969 113.953125 133.558594 114.652344 C 132.699219 115.351562 131.90625 116.117188 131.175781 116.953125 C 130.445312 117.785156 129.789062 118.675781 129.210938 119.621094 C 128.632812 120.566406 128.136719 121.550781 127.722656 122.578125 C 127.308594 123.609375 126.984375 124.664062 126.75 125.746094 C 126.515625 126.828125 126.375 127.925781 126.324219 129.03125 C 126.273438 130.140625 126.316406 131.242188 126.453125 132.34375 C 130.945312 168.847656 151.621094 257.160156 246.710938 276.566406 C 247.648438 276.757812 248.597656 276.878906 249.550781 276.933594 C 250.507812 276.984375 251.464844 276.96875 252.417969 276.882812 C 253.371094 276.796875 254.316406 276.640625 255.246094 276.417969 C 256.175781 276.195312 257.085938 275.902344 257.976562 275.546875 C 258.867188 275.1875 259.722656 274.769531 260.550781 274.285156 C 261.378906 273.804688 262.167969 273.265625 262.917969 272.667969 C 263.664062 272.070312 264.367188 271.421875 265.019531 270.71875 C 265.675781 270.019531 266.273438 269.277344 266.820312 268.488281 L 274.21875 257.796875 C 274.585938 257.269531 274.921875 256.722656 275.238281 256.160156 C 275.550781 255.597656 275.835938 255.019531 276.089844 254.429688 C 276.347656 253.835938 276.574219 253.234375 276.769531 252.621094 C 276.96875 252.007812 277.132812 251.386719 277.269531 250.757812 C 277.40625 250.128906 277.511719 249.492188 277.585938 248.851562 C 277.660156 248.214844 277.699219 247.570312 277.710938 246.925781 C 277.722656 246.28125 277.699219 245.640625 277.648438 244.996094 C 277.59375 244.355469 277.511719 243.71875 277.394531 243.085938 C 277.28125 242.449219 277.136719 241.824219 276.957031 241.203125 C 276.78125 240.585938 276.574219 239.976562 276.339844 239.375 C 276.101562 238.777344 275.835938 238.191406 275.542969 237.617188 C 275.25 237.046875 274.925781 236.488281 274.578125 235.945312 C 274.230469 235.40625 273.855469 234.882812 273.453125 234.378906 C 273.054688 233.871094 272.628906 233.390625 272.183594 232.925781 C 271.734375 232.464844 271.265625 232.023438 270.773438 231.605469 C 270.28125 231.191406 269.773438 230.796875 269.242188 230.429688 C 269.203125 230.402344 269.160156 230.375 269.117188 230.34375 L 252.859375 219.273438 C 251.984375 218.675781 251.070312 218.15625 250.109375 217.707031 C 249.152344 217.261719 248.164062 216.894531 247.144531 216.605469 C 246.128906 216.316406 245.09375 216.113281 244.042969 215.992188 C 242.992188 215.871094 241.9375 215.835938 240.882812 215.882812 C 239.824219 215.933594 238.78125 216.066406 237.746094 216.285156 C 236.710938 216.5 235.699219 216.800781 234.710938 217.183594 C 233.726562 217.5625 232.777344 218.019531 231.863281 218.554688 C 230.949219 219.089844 230.085938 219.695312 229.269531 220.367188 C 228.460938 221.039062 227.601562 221.640625 226.695312 222.171875 C 225.789062 222.707031 224.847656 223.164062 223.867188 223.542969 C 222.886719 223.925781 221.882812 224.226562 220.855469 224.445312 C 219.824219 224.667969 218.785156 224.804688 217.738281 224.855469 C 216.6875 224.910156 215.640625 224.878906 214.59375 224.761719 C 213.546875 224.648438 212.519531 224.449219 211.507812 224.167969 C 210.492188 223.886719 209.507812 223.527344 208.554688 223.089844 C 207.597656 222.648438 206.683594 222.136719 205.808594 221.550781 C 195.921875 214.886719 182.535156 203.835938 173.839844 188.511719 C 173.355469 187.65625 172.933594 186.773438 172.578125 185.855469 C 172.222656 184.9375 171.9375 184 171.722656 183.039062 C 171.511719 182.078125 171.367188 181.109375 171.296875 180.128906 C 171.230469 179.148438 171.234375 178.167969 171.308594 177.1875 C 171.386719 176.207031 171.539062 175.238281 171.757812 174.277344 C 171.980469 173.320312 172.273438 172.386719 172.636719 171.46875 C 172.996094 170.554688 173.425781 169.675781 173.921875 168.824219 C 174.414062 167.972656 174.96875 167.164062 175.582031 166.398438 L 179.765625 161.195312 C 180.703125 160.027344 181.5 158.769531 182.152344 157.421875 C 182.800781 156.074219 183.292969 154.667969 183.621094 153.207031 C 183.953125 151.746094 184.113281 150.265625 184.105469 148.769531 C 184.097656 147.273438 183.921875 145.792969 183.578125 144.335938 Z M 183.578125 144.335938 " fill-opacity="1" fill-rule="nonzero"/></svg>